<?xml version="1.0" encoding="UTF-8"?><svg id="logo" xmlns="http://www.w3.org/2000/svg" viewBox="0 0 240 160">
    <g fill="currentColor">
        <!-- E letter - elegant with geometric cut -->
        <path d="M 20,20 L 20,140 L 110,140 L 110,118 L 48,118 L 48,90 L 100,90 L 100,70 L 48,70 L 48,42 L 110,42 L 110,20 Z"/>
        <!-- Small accent square on E -->
        <rect x="94" y="26" width="10" height="10" rx="2" opacity="0.4"/>
        
        <!-- P letter - modern with flowing curves -->
        <path d="M 120,20 L 120,140 L 148,140 L 148,95 L 190,95 C 222,95 240,77 240,58 C 240,39 222,20 190,20 Z 
                 M 148,42 L 190,42 C 205,42 212,49 212,58 C 212,67 205,73 190,73 L 148,73 Z"/>
        
        <!-- Decorative pattern dots - flowing across the letters -->
        <g opacity="0.3">
            <circle cx="30" cy="35" r="3"/>
            <circle cx="65" cy="55" r="2.5"/>
            <circle cx="85" cy="105" r="3"/>
            <circle cx="130" cy="50" r="2.5"/>
            <circle cx="175" cy="85" r="3"/>
            <circle cx="220" cy="65" r="2.5"/>
        </g>
        
        <!-- Subtle connecting line element -->
        <path d="M 112,80 Q 116,80 120,81" stroke="currentColor" fill="none" stroke-width="2" opacity="0.2"/>
    </g>
</svg>
