<?xml version="1.0" encoding="UTF-8"?>
<svg id="favicon" xmlns="http://www.w3.org/2000/svg" viewBox="0 0 500 500">
  <style>
    @media (prefers-color-scheme: dark) {
        .bg { fill: #2A2A2A }
        .pattern { fill: #E8685C }
        .text { fill: #F5E6D3 }
    }
  </style>
  <!-- Background -->
  <rect class="bg" fill="#C1423F" width="500" height="500" rx="80"/>
  
  <!-- Pattern elements - subtle geometric pattern -->
  <rect class="pattern" fill="#E8685C" x="380" y="60" width="60" height="60" rx="8" opacity="0.4"/>
  <rect class="pattern" fill="#E8685C" x="60" y="380" width="60" height="60" rx="8" opacity="0.4"/>
  
  <!-- E letter -->
  <path class="text" fill="#F5E6D3" 
    d="M90,140 L90,360 L260,360 L260,310 L150,310 L150,270 L240,270 L240,230 L150,230 L150,190 L260,190 L260,140 Z"/>
  
  <!-- P letter -->
  <path class="text" fill="#F5E6D3" 
    d="M300,140 L300,360 L360,360 L360,280 L400,280 C440,280 470,250 470,210 C470,170 440,140 400,140 Z 
       M360,190 L400,190 C410,190 420,200 420,210 C420,220 410,230 400,230 L360,230 Z"/>
</svg>
